Former pro-wrestler "Stone Cold" Steve Austin and martial arts star Gary Daniels are appearing together in HUNT TO KILL.Steve Austin stars as U.S. Border Patrol agent Jim Rhodes, a tough divorcée mourning the loss of his murdered partner while struggling to raise his rebellious daughter in the mountains of Montana. But when a crew of trigger-happy fugitives takes Rhodes and his daughter hostage, a rugged wilderness will explode in all-terrain vengeance. Is there any wounded animal more dangerous than a lawman left for dead? Daniels portrays one of the villains.
 
http://www.imdb.com/title/tt1563719/

Subtitles (srt) : Dutch.

Covers included.

Jim Rhodes is een ruige agent van de grenspolitie. Wanneer zijn tienerdochter ontvoerd wordt, wordt hij gedwongen een groep genadeloze moordenaars de wildernis in te leiden om hun verloren deel van een mislukte deal terug te halen. Om zijn dochter te redden zal Jim nu zijn survival-technieken moeten gebruiken om de ontvoerders te slim af te zijn.
 
http://www.moviemeter.nl/film/69115

Ondertitels (srt) : Nederlands.

Hoesjes bijgevoegd.

General
Complete name                    : Hunt to Kill-AC3-XviD-BRRip[Eng]2010 2Lions-Team\Hunt to Kill-AC3-XviD-BRRip[Eng]2010 2Lions-Team.avi
Format                           : AVI
Format/Info                      : Audio Video Interleave
File size                        : 1.36 GiB
Duration                         : 1h 37mn
Overall bit rate                 : 2 009 Kbps
Writing application              : VirtualDubMod 1.5.4.1 (build 2178/release)
Writing library                  : VirtualDubMod build 2178/release
Source                           : Hunt.To.Kill.2010.1080p.BluRay.x264-AV CHD

Video
ID                               : 0
Format                           : MPEG-4 Visual
Format profile                   : Simple@L3
Format settings, BVOP            : No
Format settings, QPel            : No
Format settings, GMC             : No warppoints
Format settings, Matrix          : Default (H.263)
Codec ID                         : XVID
Codec ID/Hint                    : XviD
Duration                         : 1h 37mn
Bit rate                         : 1 552 Kbps
Width                            : 720 pixels
Height                           : 400 pixels
Display aspect ratio             : 16:9
Frame rate                       : 23.976 fps
Color space                      : YUV
Chroma subsampling               : 4:2:0
Bit depth                        : 8 bits
Scan type                        : Progressive
Bits/(Pixel*Frame)               : 0.225
Stream size                      : 1.05 GiB (77%)
Writing library                  : XviD 1.1.2 (UTC 2006-11-01)

Audio
ID                               : 1
Format                           : AC-3
Format/Info                      : Audio Coding 3
Mode extension                   : CM (complete main)
Codec ID                         : 2000
Duration                         : 1h 37mn
Bit rate mode                    : Constant
Bit rate                         : 448 Kbps
Channel(s)                       : 6 channels
Channel positions                : Front: L C R, Side: L R, LFE
Sampling rate                    : 48.0 KHz
Bit depth                        : 16 bits
Stream size                      : 311 MiB (22%)
Alignment                        : Split accross interleaves
Interleave, duration             : 42 ms (1.00 video frame)
Interleave, preload duration     : 500 ms

Thanks to BoH_BoH_MaN, and Gollums-Team for the Dutch subs.Nice job again!

Brought to you by 
2Lions Team

meer zien??
                   
Kom dan eens kijken op ons NIEUWE forum 
            
http://www.2lions-site.nl/

2Lions the site to be for all your Dutch MOVIES and more

******************************************

DON T HIT AND RUN Niet gelijk afhaken als de FILM binnen is blijf seeden. 

Don`t quit after you finished the download, but keep seeding

There are fake torrents from uploaders who use our team name.
Those are not ours, or members from our team.
We 2Lions-Team are not responsible for the fake posts on our name

Wij 2Lions-Team zijn niet verantwoordelijk voor die zieke FAKE posten die op onze naam worden gedaan

Please check our site !!!

to the fakers , get a life !!!